<svg version="1.1" id="Layer_1" xmlns="http://www.w3.org/2000/svg" xmlns:xlink="http://www.w3.org/1999/xlink" x="0px" y="0px"
	 width="100%" viewBox="0 0 496 496" enable-background="new 0 0 496 496" xml:space="preserve">
<path fill="#000000" opacity="1.000000" stroke="none" 
	d="
M259.207367,240.203827 
	C255.496231,239.058655 256.679749,236.281311 256.669250,234.192581 
	C256.575348,215.539566 256.614502,196.885880 256.152191,178.154953 
	C254.546265,188.400330 252.935043,198.644897 251.336014,208.891373 
	C249.951477,217.763489 248.568542,226.635910 247.210419,235.512100 
	C246.727280,238.669724 245.500534,240.507309 241.747284,240.407013 
	C225.965271,239.985245 229.333557,242.638031 226.670563,227.602371 
	C223.886505,211.883270 221.322159,196.125244 218.116119,180.365402 
	C218.116119,184.645828 218.109619,188.926270 218.117294,193.206680 
	C218.142120,207.035355 218.039551,220.866302 218.277557,234.691360 
	C218.353119,239.080719 216.850113,240.521713 212.494614,240.394318 
	C198.228653,239.976959 199.759201,242.423416 200.223404,227.905716 
	C200.820007,209.246964 200.591965,190.598755 200.611053,171.946075 
	C200.617691,165.460190 200.129364,158.974854 200.076843,152.487564 
	C200.022003,145.711777 200.135010,145.697800 206.656052,145.682617 
	C212.654099,145.668640 218.656677,145.820175 224.648651,145.629211 
	C228.340866,145.511536 229.949539,146.769089 230.416763,150.631027 
	C232.253189,165.810532 234.412262,180.951065 236.470276,196.103516 
	C236.554260,196.721924 236.827438,197.314606 237.359970,199.054764 
	C239.583145,182.868362 241.721329,167.840515 243.681625,152.789490 
	C244.597000,145.761307 244.487091,145.691620 251.565750,145.685516 
	C257.563812,145.680344 263.563995,145.793243 269.559113,145.663437 
	C272.881256,145.591507 274.361359,146.711670 274.351746,150.261673 
	C274.274689,178.752136 274.283600,207.243118 274.387695,235.733475 
	C274.400513,239.242020 273.081970,240.531982 269.678284,240.345673 
	C266.355865,240.163818 263.017181,240.278778 259.207367,240.203827 
z"/>
<path fill="#000000" opacity="1.000000" stroke="none" 
	d="
M57.698860,327.878296 
	C57.699429,300.256042 57.829933,273.116699 57.590206,245.980652 
	C57.544670,240.826630 59.178543,239.336960 64.148209,239.573654 
	C71.955978,239.945526 79.795113,239.599884 87.618576,239.717270 
	C96.264732,239.847000 101.546898,244.431030 103.348320,252.841843 
	C104.726631,259.277191 104.515396,265.764130 104.117401,272.230164 
	C103.820900,277.047363 101.740273,281.211853 97.282219,284.554504 
	C103.670868,289.821289 103.459053,296.809937 103.348755,303.830963 
	C103.215385,312.320343 103.183586,320.813141 103.259956,329.303070 
	C103.291451,332.804108 102.104248,334.598755 98.335312,334.382843 
	C95.016251,334.192719 91.671707,334.208008 88.349945,334.369598 
	C84.798111,334.542358 83.704994,332.818542 83.728737,329.538452 
	C83.805847,318.883606 83.680962,308.227203 83.774406,297.572632 
	C83.806267,293.939850 82.524231,291.849548 78.679665,291.817688 
	C76.697395,293.360687 77.426926,295.522278 77.413826,297.411682 
	C77.339920,308.066650 77.261108,318.724060 77.427795,329.376862 
	C77.484245,332.984192 76.359154,334.627045 72.603424,334.377869 
	C69.619987,334.179962 66.590904,334.118958 63.620567,334.401581 
	C58.962635,334.844818 57.149105,332.850739 57.698860,327.878296 
M84.635834,270.987030 
	C85.670189,267.551178 85.756577,264.116241 84.698212,260.660950 
	C83.934349,258.167175 81.976830,257.955231 79.896980,258.198273 
	C77.618576,258.464508 77.621567,260.173889 77.715622,261.956085 
	C77.847153,264.448059 77.789169,266.950684 77.942947,269.440674 
	C78.050018,271.174286 77.293129,273.517883 79.546219,274.233795 
	C81.645576,274.900848 83.413712,273.775726 84.635834,270.987030 
z"/>
<path fill="#000000" opacity="1.000000" stroke="none" 
	d="
M104.655533,184.999908 
	C104.659904,173.178558 104.769066,161.855759 104.609398,150.536743 
	C104.557503,146.857788 105.848083,145.393433 109.531471,145.642563 
	C112.680283,145.855530 115.867676,145.861420 119.015244,145.638138 
	C123.037552,145.352814 124.267281,147.244293 124.206367,150.972900 
	C124.078552,158.795624 124.209877,166.622223 124.172691,174.446945 
	C124.160042,177.108246 124.717262,178.954849 127.983917,178.965103 
	C131.157791,178.975067 131.954666,177.331360 131.937393,174.568970 
	C131.888428,166.744324 132.069382,158.915787 131.881454,151.095459 
	C131.783173,147.005295 133.294632,145.617447 137.422974,145.607208 
	C151.302094,145.572754 151.341934,145.435410 151.359070,159.522430 
	C151.389481,184.495422 151.265808,209.469238 151.455276,234.440826 
	C151.490021,239.019669 150.077957,240.824448 145.499512,240.379028 
	C142.695862,240.106262 139.830872,240.159027 137.016693,240.372513 
	C133.007782,240.676636 131.789749,238.809311 131.843811,235.056763 
	C131.994904,224.569839 131.947433,214.079742 131.932785,203.590973 
	C131.929092,200.950546 132.325851,198.056213 128.196976,197.952332 
	C123.764404,197.840775 124.106674,200.869614 124.108459,203.732376 
	C124.114983,214.221207 124.023232,224.712357 124.225960,235.197662 
	C124.301575,239.108643 122.894089,240.359497 119.004898,240.399979 
	C104.646400,240.549469 104.652008,240.669922 104.657143,226.456223 
	C104.662079,212.804123 104.656700,199.152008 104.655533,184.999908 
z"/>
<path fill="#000000" opacity="1.000000" stroke="none" 
	d="
M199.300354,168.172241 
	C199.301834,184.793518 199.472748,200.939163 199.249832,217.079376 
	C199.005203,234.791855 185.511520,244.845642 168.463058,240.330719 
	C159.854523,238.050934 153.118164,230.619553 152.926224,221.064072 
	C152.559036,202.786102 151.491272,184.469879 152.697189,166.213226 
	C153.685104,151.256821 162.080841,144.337906 177.069580,144.724289 
	C190.664383,145.074768 198.593826,153.269363 199.300354,168.172241 
M174.059143,163.566696 
	C171.132767,166.050354 171.468597,169.525742 171.446762,172.779541 
	C171.355148,186.422699 171.377960,200.066696 171.397110,213.710342 
	C171.399185,215.195648 171.506210,216.711014 171.815735,218.158722 
	C172.302017,220.433105 172.717041,223.056580 175.971634,222.710358 
	C178.955063,222.393036 179.600967,219.983276 179.610641,217.576645 
	C179.676895,201.104980 179.683258,184.632751 179.608383,168.161179 
	C179.594864,165.186600 178.436295,162.900375 174.059143,163.566696 
z"/>
<path fill="#000000" opacity="1.000000" stroke="none" 
	d="
M224.675674,348.787903 
	C230.857956,325.757416 236.942749,303.121216 243.095688,280.503571 
	C243.919235,277.476257 244.180710,275.425507 239.923050,275.250488 
	C234.643494,275.033539 231.269623,271.699310 230.409332,266.734985 
	C229.563522,261.854218 231.967072,257.098663 236.263107,255.153030 
	C240.851257,253.075058 246.225525,254.360046 249.328506,258.277039 
	C252.127106,261.809753 252.198212,267.472107 249.445190,271.319794 
	C248.784561,272.243134 247.981934,273.064911 247.026840,274.189850 
	C250.894699,276.699921 255.287628,276.968353 259.294098,278.287567 
	C262.922516,279.482300 266.697784,280.231628 270.324402,281.431030 
	C280.027802,284.640137 284.499969,290.657593 284.232880,300.817596 
	C283.966309,310.958344 281.259827,320.565277 275.979675,329.256226 
	C271.005371,337.443756 264.897827,339.627747 254.439499,336.516083 
	C249.543457,335.059326 247.698334,336.108795 246.603546,341.029358 
	C244.728241,349.457886 242.113602,357.719360 239.966827,366.091339 
	C239.102905,369.460480 237.632935,370.949249 233.980469,369.662476 
	C230.853760,368.560883 227.584610,367.842163 224.349808,367.074738 
	C220.992981,366.278381 220.187241,364.427673 221.248764,361.196716 
	C222.544586,357.252594 223.498047,353.196014 224.675674,348.787903 
M255.863129,318.464081 
	C261.558624,317.093445 266.791870,304.719360 263.758636,299.772522 
	C262.941925,298.440582 261.829376,297.461914 260.182098,297.452728 
	C258.387726,297.442688 258.175690,298.988190 257.835144,300.204803 
	C256.543854,304.817932 255.342728,309.456329 254.113495,314.086792 
	C253.689941,315.682312 252.961304,317.366669 255.863129,318.464081 
z"/>
<path fill="#000000" opacity="1.000000" stroke="none" 
	d="
M174.191803,256.986572 
	C188.127991,249.499893 206.632904,256.570648 209.852554,270.569977 
	C211.791504,279.000702 208.396698,286.989929 206.574310,295.055664 
	C206.168472,296.851898 204.661087,297.134033 202.980835,296.755493 
	C198.922638,295.841309 194.847855,295.000183 190.793289,294.070587 
	C188.463959,293.536530 187.447998,292.138580 188.032181,289.671265 
	C188.798279,286.435669 189.519592,283.186554 190.141678,279.920685 
	C190.692184,277.030640 191.974472,273.407867 187.704681,272.564911 
	C183.475067,271.729919 183.107697,275.702087 182.480011,278.465271 
	C179.975266,289.491455 177.698837,300.569366 175.314987,311.623199 
	C174.403519,315.849609 173.330200,320.043671 172.523148,324.289093 
	C172.036331,326.850037 172.099823,329.685455 175.295731,330.335205 
	C178.215576,330.928833 179.358292,328.440155 179.961136,326.137115 
	C181.097366,321.796265 182.110352,317.414246 182.942871,313.005554 
	C183.665024,309.181213 185.591263,308.302887 189.325409,309.089294 
	C203.219666,312.015411 203.244049,311.915436 200.320892,325.758453 
	C200.045929,327.060547 199.711777,328.350739 199.381943,329.640564 
	C195.042068,346.611511 184.006973,352.586670 167.372345,346.976837 
	C157.824127,343.756836 151.204117,333.202332 153.185669,323.251068 
	C156.464890,306.782959 160.040604,290.368774 163.824768,274.008972 
	C165.338257,267.465881 168.171112,261.389862 174.191803,256.986572 
z"/>
<path fill="#000000" opacity="1.000000" stroke="none" 
	d="
M318.040985,351.406799 
	C314.261108,354.083130 310.596222,356.385010 307.062317,358.872925 
	C304.521576,360.661621 303.008636,360.057983 301.521606,357.459625 
	C299.389832,353.734711 296.930237,350.197418 294.265381,346.041656 
	C288.401855,349.762512 282.980255,353.202911 276.825745,357.108398 
	C279.489929,361.400421 281.814301,365.554749 284.547852,369.419708 
	C286.753571,372.538330 286.773438,374.612671 283.109680,376.499023 
	C280.162048,378.016663 277.411407,379.941589 274.667633,381.823303 
	C272.182037,383.527985 270.568268,382.996796 268.996857,380.476715 
	C263.536163,371.719452 257.992310,363.012024 252.340057,354.377289 
	C250.624832,351.757019 250.712997,350.059875 253.511093,348.286926 
	C277.837463,332.873047 302.127869,317.402100 326.371002,301.857697 
	C328.949036,300.204712 330.445831,300.573578 332.019440,303.096710 
	C337.393311,311.713013 342.833710,320.289612 348.388123,328.790314 
	C349.927063,331.145538 349.511780,332.481018 347.320404,334.107513 
	C335.437134,342.927551 335.366791,343.041443 327.433807,330.834076 
	C325.304688,327.557831 323.427429,326.961243 320.284576,329.268585 
	C317.215637,331.521667 313.923645,333.470917 310.611847,335.630341 
	C311.591370,341.723602 317.502045,345.174347 318.040985,351.406799 
z"/>
<path fill="#000000" opacity="1.000000" stroke="none" 
	d="
M277.375610,146.091522 
	C288.478699,145.844955 299.138977,145.821198 309.797180,145.659805 
	C312.941681,145.612198 314.157990,146.798813 314.333679,150.023132 
	C315.105469,164.190170 315.189636,164.284271 300.881989,164.318604 
	C297.165375,164.327515 295.134369,165.047134 295.857727,169.319244 
	C296.518524,173.221893 294.078094,178.208099 296.599091,180.886826 
	C299.170166,183.618805 304.201721,181.830002 308.135345,181.829895 
	C311.984589,181.829788 313.351562,183.238647 313.408691,187.132187 
	C313.600342,200.199051 313.724457,200.353546 300.870636,200.289948 
	C296.391022,200.267807 294.953033,201.637665 295.608002,206.141190 
	C296.079407,209.382751 295.652557,212.786194 295.378265,216.096893 
	C295.051422,220.042267 296.268951,222.058929 300.634033,221.685944 
	C304.108185,221.389069 307.639191,221.793930 311.122467,221.556961 
	C314.493164,221.327621 315.313202,222.773911 315.400177,225.920639 
	C315.798492,240.331070 315.882050,240.331207 301.539520,240.332581 
	C294.541565,240.333252 287.540955,240.205200 280.546783,240.365341 
	C276.873779,240.449448 275.599884,239.021255 275.612885,235.360260 
	C275.712555,207.202408 275.661285,179.044067 275.682404,150.885880 
	C275.683624,149.261963 275.392212,147.497223 277.375610,146.091522 
z"/>
<path fill="#000000" opacity="1.000000" stroke="none" 
	d="
M117.933655,277.142578 
	C120.100761,267.315277 122.278297,257.918182 124.172112,248.464294 
	C124.870064,244.980148 126.157715,243.735504 129.877823,244.622284 
	C139.260101,246.858810 148.717361,248.789337 158.171036,250.712479 
	C160.959015,251.279633 161.774155,252.738876 161.108200,255.324493 
	C161.066696,255.485626 161.023315,255.646652 160.991043,255.809738 
	C158.294388,269.439911 158.272232,269.548462 144.752304,266.779694 
	C141.562378,266.126434 140.178055,266.892059 139.380020,269.963959 
	C136.298920,281.824158 136.230423,281.859924 148.512741,284.846191 
	C151.935440,285.678345 153.474030,286.815857 152.580154,290.975189 
	C149.897980,303.455597 150.081680,303.702454 137.863083,301.054138 
	C133.950577,300.206146 132.358749,300.907043 131.847382,304.890533 
	C131.404648,308.339172 130.478348,311.737091 129.605164,315.115936 
	C128.744614,318.445862 129.923767,320.224030 133.294083,320.688721 
	C134.278763,320.824463 135.272491,321.033173 136.207993,321.362183 
	C139.708740,322.593292 145.458145,321.249542 146.374130,325.000946 
	C147.492355,329.580444 145.068710,334.717438 143.629700,339.480621 
	C143.002121,341.557892 141.072510,341.377777 139.414627,341.019470 
	C129.335007,338.841064 119.289459,336.499298 109.186806,334.436035 
	C104.760529,333.532074 106.353516,330.556213 106.847778,328.239777 
	C110.281898,312.145264 113.873032,296.084259 117.406036,280.010773 
	C117.584541,279.198669 117.691376,278.370789 117.933655,277.142578 
z"/>
<path fill="#000000" opacity="1.000000" stroke="none" 
	d="
M198.451187,350.359558 
	C197.312912,346.926666 198.879669,344.177460 199.596191,341.335144 
	C204.793884,320.717041 210.216766,300.154388 215.221344,279.490112 
	C216.213150,275.394867 217.914398,274.954193 221.432739,275.826599 
	C234.575272,279.085449 234.598129,279.023651 231.300323,291.950928 
	C226.330994,311.430481 221.244675,330.881317 216.463089,350.406799 
	C215.490921,354.376617 213.710724,355.183777 210.166000,354.043427 
	C206.379700,352.825439 202.534241,351.791229 198.451187,350.359558 
z"/>
<path fill="#000000" opacity="1.000000" stroke="none" 
	d="
M341.500061,145.219238 
	C344.721985,145.706772 346.478607,147.491745 345.682861,150.335724 
	C344.872223,153.233124 342.512054,153.936111 339.736328,152.561584 
	C338.936005,152.165268 338.210419,152.230759 337.384552,152.588959 
	C335.498108,153.407181 333.343781,154.060760 332.166473,151.797058 
	C331.261414,150.056732 331.086548,147.735779 332.377625,146.120865 
	C333.771667,144.377121 335.650970,145.111206 337.230255,146.311966 
	C338.992279,147.651688 339.788208,145.380371 341.500061,145.219238 
z"/>
<path fill="#000000" opacity="1.000000" stroke="none" 
	d="
M351.673523,151.941467 
	C350.133148,152.191925 348.712677,152.191925 347.117096,152.191925 
	C347.117096,150.499329 347.117096,148.762833 347.117096,146.975525 
	C348.411072,146.054932 350.062927,146.937195 351.464783,145.389191 
	C352.002930,147.924637 350.789429,149.898438 351.673523,151.941467 
z"/>
</svg>